<svg width="100%" height="100%" id="svg" viewBox="0 0 1440 390" xmlns="http://www.w3.org/2000/svg" class="transition duration-300 ease-in-out delay-150"><path d="M 0,400 C 0,400 0,200 0,200 C 18.725958171717892,216.7671278137878 37.451916343435784,233.5342556275756 59,247 C 80.54808365656422,260.4657443724244 104.91829279797474,270.6301053034854 136,255 C 167.08170720202526,239.36989469651465 204.87491246466516,197.94532315848303 226,185 C 247.12508753533484,172.05467684151697 251.5820573433645,187.5886020625825 274,210 C 296.4179426566355,232.4113979374175 336.79685816187674,261.70026859118684 365,260 C 393.20314183812326,258.29973140881316 409.23051000912875,225.61032357267027 430,218 C 450.76948999087125,210.38967642732973 476.2811018016082,227.8584371181321 503,231 C 529.7188981983918,234.1415628818679 557.6450827844386,222.95592795480138 580,232 C 602.3549172155614,241.04407204519862 619.1385670606378,270.3178510626624 644,263 C 668.8614329393622,255.6821489373376 701.8006489730101,211.7726677945491 726,196 C 750.1993510269899,180.2273322054509 765.6588370473218,192.59147775914104 788,211 C 810.3411629526782,229.40852224085896 839.5640028377034,253.86142116888675 862,270 C 884.4359971622966,286.13857883111325 900.0851516018654,293.9628375653118 922,261 C 943.9148483981346,228.03716243468816 972.0953907548352,154.28722856986585 998,152 C 1023.9046092451648,149.71277143013415 1047.5332853787934,218.8882481552247 1071,245 C 1094.4667146212066,271.1117518447753 1117.7714677299916,254.15977880923538 1143,217 C 1168.2285322700084,179.84022119076462 1195.3808437012397,122.4726366078338 1223,133 C 1250.6191562987603,143.5273633921662 1278.705157465051,221.9496747594294 1305,257 C 1331.294842534949,292.0503252405706 1355.7985264385568,283.7286643544487 1378,267 C 1400.2014735614432,250.27133564555126 1420.1007367807215,225.13566782277564 1440,200 C 1440,200 1440,400 1440,400 Z" stroke="none" stroke-width="0" fill="#e9e982" fill-opacity="1" class="transition-all duration-300 ease-in-out delay-150 path-0" transform="rotate(-180 720 200)"></path></svg>