<svg width="2000" height="1000" xmlns="http://www.w3.org/2000/svg"><defs><linearGradient id="a" gradientTransform="rotate(90)"><stop offset="5%" stop-color="#5a7fb8"/><stop offset="95%" stop-color="#839fc9"/></linearGradient><linearGradient id="b" gradientTransform="rotate(90)"><stop offset="5%" stop-color="#8ea7cd"/><stop offset="95%" stop-color="#aabdd9"/></linearGradient><linearGradient id="c" gradientTransform="rotate(90)"><stop offset="5%" stop-color="#c3cfe2"/><stop offset="95%" stop-color="#d2dbe9"/></linearGradient><linearGradient id="d" gradientTransform="rotate(90)"><stop offset="5%" stop-color="#f7f7f7"/><stop offset="95%" stop-color="#f9f9f9"/></linearGradient></defs><path fill="#2557a3" d="M0 0h2000v1000H0z"/><path d="M0 200c123.975-4.558 247.95-9.116 349-3 101.05 6.116 179.176 22.905 291 29 111.824 6.095 257.345 1.495 373 0 115.655-1.495 201.444.115 308-9 106.556-9.115 233.88-28.954 362-33 128.12-4.046 257.034 7.701 310 13 52.966 5.299 29.983 4.15 47 3l-40 800H0Z" fill="url(#a)"/><path d="M0 400c121.554 15.553 243.109 31.105 351 22 107.891-9.105 202.12-42.87 307-39 104.88 3.87 220.413 45.371 330 46 109.587.629 213.23-39.615 320-53 106.77-13.385 216.669.089 346 14s278.095 28.26 339 30c60.905 1.74 33.953-9.13 47-20l-40 600H0Z" fill="url(#b)"/><path d="M0 600c121.172-15.06 242.345-30.12 347-33 104.655-2.88 192.794 6.42 308 19 115.206 12.58 257.48 28.437 367 29 109.52.563 186.284-14.169 294-25 107.716-10.831 246.385-17.762 374-15 127.615 2.762 244.176 15.218 294 21 49.824 5.782 32.912 4.891 56 4l-40 400H0Z" fill="url(#c)"/><path d="M0 800c117.264-3.34 234.527-6.678 339-9 104.473-2.322 196.154-3.627 307 8 110.846 11.627 240.857 36.184 360 33 119.143-3.184 227.42-34.111 339-45 111.58-10.889 226.464-1.74 346-3s243.725-12.932 296-12c52.275.932 32.638 14.466 53 28l-40 200H0Z" fill="url(#d)"/></svg>