<svg width="1920" height="1080" viewBox="0 0 1920 1080" xmlns="http://www.w3.org/2000/svg"><rect width="1920" height="1080" fill="#ffffff"/><path d="M 0,1080 C 0,1080 0,180 0,180 C 144.66985645933016,203.12918660287082 289.3397129186603,226.25837320574163 424,212 C 558.6602870813397,197.74162679425837 683.3110047846891,146.0956937799043 798,132 C 912.6889952153109,117.90430622009569 1017.4162679425835,141.35885167464116 1126,159 C 1234.5837320574165,176.64114832535884 1347.0239234449764,188.46889952153109 1480,191 C 1612.9760765550236,193.53110047846891 1766.4880382775118,186.76555023923447 1920,180 C 1920,180 1920,1080 1920,1080 Z" fill="#2557a3" opacity="0.09999999999999999"/><path d="M 0,1080 C 0,1080 0,360 0,360 C 108.29665071770336,328.77511961722485 216.59330143540672,297.55023923444975 341,301 C 465.4066985645933,304.44976076555025 605.9234449760766,342.57416267942585 748,342 C 890.0765550239234,341.42583732057415 1033.7129186602872,302.1531100478469 1148,306 C 1262.2870813397128,309.8468899521531 1347.2248803827752,356.8133971291866 1471,373 C 1594.7751196172248,389.1866028708134 1757.3875598086124,374.5933014354067 1920,360 C 1920,360 1920,1080 1920,1080 Z" fill="#2557a3" opacity="0.19999999999999998"/><path d="M 0,1080 C 0,1080 0,540 0,540 C 103.65550239234449,531.0813397129186 207.31100478468898,522.1626794258374 355,529 C 502.688995215311,535.8373205741626 694.4114832535886,558.4306220095693 835,544 C 975.5885167464114,529.5693779904307 1065.043062200957,478.1148325358851 1178,473 C 1290.956937799043,467.8851674641149 1427.4162679425835,509.11004784689 1555,528 C 1682.5837320574165,546.88995215311 1801.2918660287082,543.444976076555 1920,540 C 1920,540 1920,1080 1920,1080 Z" fill="#2557a3" opacity="0.3"/><path d="M 0,1080 C 0,1080 0,720 0,720 C 99.72248803827753,715.7894736842105 199.44497607655506,711.578947368421 326,715 C 452.55502392344494,718.421052631579 605.9425837320574,729.4736842105264 739,741 C 872.0574162679426,752.5263157894736 984.7846889952154,764.5263157894738 1115,762 C 1245.2153110047846,759.4736842105262 1392.9186602870814,742.4210526315788 1530,733 C 1667.0813397129186,723.5789473684212 1793.5406698564593,721.7894736842106 1920,720 C 1920,720 1920,1080 1920,1080 Z" fill="#2557a3" opacity="0.39999999999999997"/><path d="M 0,1080 C 0,1080 0,900 0,900 C 105.05263157894737,939.578947368421 210.10526315789474,979.1578947368422 348,955 C 485.89473684210526,930.8421052631578 656.6315789473684,842.9473684210526 781,841 C 905.3684210526316,839.0526315789474 983.3684210526317,923.0526315789473 1094,947 C 1204.6315789473683,970.9473684210527 1347.8947368421052,934.8421052631579 1491,917 C 1634.1052631578948,899.1578947368421 1777.0526315789475,899.578947368421 1920,900 C 1920,900 1920,1080 1920,1080 Z" fill="#2557a3" opacity="0.49999999999999994"/></svg>