<svg width="1920" height="240" viewBox="0 0 1920 240" xmlns="http://www.w3.org/2000/svg"><rect width="1920" height="240" fill="#df6688"/><path d="M 0,240 C 0,240 0,60 0,60 C 66.05887946250641,70.65281652716885 132.11775892501282,81.30563305433772 175,76 C 217.88224107498718,70.69436694566228 237.58784376245512,49.43028430981799 295,43 C 352.4121562375449,36.56971569018201 447.5308660251666,44.97322970639032 508,52 C 568.4691339748334,59.02677029360968 594.2886921368786,64.6767968646207 645,68 C 695.7113078631214,71.3232031353793 771.3143654273189,72.31958283512688 817,64 C 862.6856345726811,55.68041716487313 878.4538461538461,38.044871794871796 931,38 C 983.5461538461539,37.955128205128204 1072.8702499572967,55.50092998538595 1137,58 C 1201.1297500427033,60.49907001461405 1240.0651540169674,47.951408263584426 1282,52 C 1323.9348459830326,56.048591736415574 1368.8691339748336,76.69343696027633 1425,73 C 1481.1308660251664,69.30656303972367 1548.4583100836985,41.27484389531021 1599,37 C 1649.5416899163015,32.72515610468979 1683.297625690372,52.20718745848281 1734,60 C 1784.702374309628,67.7928125415172 1852.351187154814,63.8964062707586 1920,60 C 1920,60 1920,240 1920,240 Z" fill="#3d1053" opacity="0.15"/><path d="M 0,240 C 0,240 0,120 0,120 C 65.25301960561026,123.45801210878932 130.50603921122052,126.91602421757862 189,124 C 247.49396078877948,121.08397578242138 299.2288627607281,111.79391523847482 345,113 C 390.7711372392719,114.20608476152518 430.5785097458672,125.9083148285221 481,127 C 531.4214902541328,128.0916851714779 592.4570982558029,118.57282544743686 655,120 C 717.5429017441971,121.42717455256314 781.5930972309211,133.8003833817305 827,139 C 872.4069027690789,144.1996166182695 899.1705128205127,142.22564102564104 950,141 C 1000.8294871794873,139.77435897435896 1075.7248514870275,139.29705251570536 1138,135 C 1200.2751485129725,130.70294748429464 1249.9300812313768,122.5861489115375 1304,116 C 1358.0699187686232,109.4138510884625 1416.554823587466,104.3583518381446 1459,111 C 1501.445176412534,117.6416481618554 1527.8506244187593,135.98044373588414 1571,141 C 1614.1493755812407,146.01955626411586 1674.0426787374977,137.7198732183188 1735,132 C 1795.9573212625023,126.28012678168119 1857.9786606312512,123.1400633908406 1920,120 C 1920,120 1920,240 1920,240 Z" fill="#3d1053" opacity="0.3"/><path d="M 0,240 C 0,240 0,180 0,180 C 69.51578223158533,185.35875135227468 139.03156446317067,190.71750270454933 188,189 C 236.96843553682933,187.28249729545067 265.38952437890265,178.48874053407732 316,174 C 366.61047562109735,169.51125946592268 439.4103380212189,169.32753515914138 502,167 C 564.5896619787811,164.67246484085862 616.9691235362219,160.20111882935717 667,160 C 717.0308764637781,159.79888117064283 764.7131678338932,163.8679895234299 811,172 C 857.2868321661068,180.1320104765701 902.178205128205,192.32692307692307 954,188 C 1005.821794871795,183.67307692307693 1064.5740116532866,162.82431816887774 1121,157 C 1177.4259883467134,151.17568183112226 1231.5257482586499,160.37580424756595 1291,161 C 1350.4742517413501,161.62419575243405 1415.3229953121142,153.6724648408586 1463,161 C 1510.6770046878858,168.3275351591414 1541.1822704928923,190.9343363889996 1595,196 C 1648.8177295071077,201.0656636110004 1725.9479227163167,188.59018960314296 1784,183 C 1842.0520772836833,177.40981039685704 1881.0260386418418,178.70490519842852 1920,180 C 1920,180 1920,240 1920,240 Z" fill="#3d1053" opacity="0.44999999999999996"/></svg>